<?xml version="1.0" standalone="no"?>
<!DOCTYPE svg PUBLIC "-//W3C//DTD SVG 20010904//EN"
 "http://www.w3.org/TR/2001/REC-SVG-20010904/DTD/svg10.dtd">
<svg version="1.0" xmlns="http://www.w3.org/2000/svg"
 width="300.000000pt" height="243.000000pt" viewBox="0 0 300.000000 243.000000"
 preserveAspectRatio="xMidYMid meet">

<g transform="translate(0.000000,243.000000) scale(0.100000,-0.100000)"
fill="#000000" stroke="none">
<path d="M1330 2244 c0 -4 44 -53 98 -108 119 -122 142 -170 142 -297 0 -150
-60 -259 -239 -438 -77 -76 -101 -105 -74 -88 138 87 437 214 688 292 158 49
464 126 578 146 l68 11 -27 37 c-107 144 -250 229 -491 290 -43 11 -202 41
-353 66 -282 47 -329 57 -367 81 -13 8 -23 11 -23 8z m157 -75 c15 -6 27 -24
37 -60 20 -67 20 -80 0 -49 -10 14 -40 49 -68 78 -49 52 -50 53 -21 46 17 -4
40 -11 52 -15z m151 -31 c39 -6 72 -15 72 -18 0 -3 -14 -14 -31 -24 -17 -10
-46 -32 -65 -48 -19 -17 -36 -29 -39 -27 -2 2 -15 35 -28 73 l-25 68 21 -6
c12 -3 55 -11 95 -18z m120 -121 c4 -63 3 -70 -12 -64 -10 4 -46 15 -82 24
-35 9 -64 21 -64 25 0 4 30 32 67 63 79 65 83 62 91 -48z m215 63 c30 0 19
-16 -25 -36 -23 -10 -67 -34 -96 -51 -30 -18 -58 -33 -62 -33 -4 0 -10 26 -13
58 -3 31 -9 67 -12 78 l-7 22 99 -19 c54 -10 106 -18 116 -19z m43 -52 c-7
-34 -61 -158 -69 -158 -3 0 -35 14 -71 31 l-66 31 24 19 c31 25 169 107 180
108 5 1 6 -14 2 -31z m140 -2 c162 -55 163 -56 77 -76 -32 -7 -100 -27 -150
-45 -51 -17 -93 -29 -93 -25 0 4 7 24 15 44 8 19 20 58 26 86 6 27 14 50 18
50 4 0 52 -15 107 -34z m-448 -102 c12 -3 22 -8 22 -10 0 -4 -55 -54 -107 -99
l-33 -27 0 86 0 85 48 -15 c26 -8 57 -17 70 -20z m585 -12 c-16 -21 -59 -77
-96 -125 -63 -80 -87 -101 -87 -78 0 5 -27 36 -60 69 l-60 60 63 26 c82 35
228 84 250 85 14 1 13 -5 -10 -37z m123 -11 c38 -27 86 -67 108 -89 l39 -41
-34 -5 c-19 -2 -85 -12 -148 -22 -63 -9 -137 -23 -165 -30 -27 -7 -52 -11 -55
-9 -2 3 21 31 53 62 31 32 71 86 89 120 17 35 35 63 38 63 3 0 37 -22 75 -49z
m-567 -40 l54 -28 -88 -46 c-48 -26 -89 -47 -91 -47 -2 0 8 24 21 53 14 28 25
59 25 68 0 16 9 29 19 29 3 -1 30 -14 60 -29z m-106 -3 c-8 -33 -61 -148 -68
-148 -11 0 -75 45 -72 52 3 10 130 118 139 118 3 0 4 -10 1 -22z m278 -106
c35 -26 64 -52 66 -57 3 -10 -294 -110 -327 -110 -8 -1 -21 -4 -27 -8 -8 -5
-14 1 -18 20 -4 15 -11 39 -16 52 -6 15 -6 27 0 35 13 15 191 109 191 101 0
-8 -85 -121 -118 -157 -14 -15 -22 -31 -18 -35 9 -9 107 94 158 165 17 23 35
42 39 42 4 0 36 -22 70 -48z m-408 -56 c9 -7 17 -16 17 -18 0 -3 -24 -24 -54
-47 l-55 -41 27 60 c28 62 36 68 65 46z m83 -113 c5 -27 2 -29 -58 -52 -35
-13 -85 -35 -112 -47 -28 -13 -52 -24 -55 -24 -3 0 19 21 49 47 30 26 75 69
99 95 42 46 45 47 58 29 7 -11 16 -32 19 -48z m-143 -21 c-39 -37 -86 -76
-105 -86 l-33 -20 36 45 c35 43 144 128 164 128 6 0 -22 -30 -62 -67z"/>
<path d="M230 810 c0 -5 5 -10 10 -10 6 0 10 5 10 10 0 6 -4 10 -10 10 -5 0
-10 -4 -10 -10z"/>
<path d="M854 793 c-4 -16 -12 -31 -18 -35 -8 -5 -7 -8 2 -8 8 0 12 -17 12
-50 0 -27 5 -50 10 -50 6 0 10 22 10 49 0 39 4 51 18 54 16 4 16 5 0 6 -11 1
-18 9 -18 21 0 10 8 24 18 29 15 9 15 10 -5 11 -16 0 -24 -8 -29 -27z"/>
<path d="M20 730 c0 -47 4 -80 10 -80 6 0 10 28 10 63 l1 62 27 -62 c15 -35
30 -63 34 -63 5 0 21 28 37 63 l29 62 1 -62 c1 -35 5 -63 11 -63 6 0 10 33 10
80 0 102 -17 106 -56 15 -15 -36 -30 -62 -34 -58 -4 4 -18 34 -30 66 -34 83
-50 76 -50 -23z"/>
<path d="M935 785 c-5 -11 -13 -23 -19 -27 -7 -5 -7 -8 2 -8 8 0 12 -15 12
-43 0 -24 5 -48 12 -55 15 -15 38 -16 38 -2 0 6 -7 10 -15 10 -23 0 -21 87 3
93 15 4 15 5 0 6 -9 0 -18 11 -21 24 -3 21 -4 21 -12 2z"/>
<path d="M300 750 c-26 -26 -26 -64 0 -90 22 -22 37 -25 60 -10 12 8 10 10
-10 10 -32 0 -50 17 -50 45 0 28 18 45 48 45 13 0 20 4 17 10 -10 16 -44 11
-65 -10z"/>
<path d="M435 760 c-3 -5 -12 -7 -20 -3 -12 4 -15 -6 -15 -51 0 -31 5 -56 10
-56 6 0 10 21 10 46 0 37 4 47 20 51 11 3 20 9 20 14 0 12 -17 11 -25 -1z"/>
<path d="M490 750 c-11 -11 -20 -31 -20 -45 0 -44 53 -79 86 -57 37 24 39 93
4 112 -28 15 -48 12 -70 -10z m70 -14 c28 -35 -11 -93 -47 -70 -36 22 -23 84
17 84 10 0 23 -7 30 -14z"/>
<path d="M628 759 c-26 -15 -22 -48 7 -61 33 -15 32 -36 -2 -40 -25 -4 -26 -5
-9 -13 23 -10 50 5 54 32 2 13 -6 23 -23 31 -33 15 -33 42 1 42 14 0 23 4 19
10 -8 13 -25 12 -47 -1z"/>
<path d="M720 750 c-11 -11 -20 -31 -20 -45 0 -30 32 -65 60 -65 28 0 60 35
60 65 0 30 -32 65 -60 65 -11 0 -29 -9 -40 -20z m76 -27 c4 -14 2 -33 -3 -42
-22 -35 -73 -19 -73 23 0 50 65 66 76 19z"/>
<path d="M1010 766 c0 -2 7 -9 15 -16 9 -7 15 -8 15 -2 0 5 -7 12 -15 16 -8 3
-15 4 -15 2z"/>
<path d="M230 705 c0 -30 5 -55 10 -55 6 0 10 25 10 55 0 30 -4 55 -10 55 -5
0 -10 -25 -10 -55z"/>
<path d="M74 581 c-27 -12 -46 -30 -57 -54 -35 -73 -14 -118 86 -186 88 -59
100 -73 100 -113 0 -61 -71 -86 -150 -53 -49 21 -53 19 -53 -15 0 -25 5 -30
38 -39 60 -17 120 -13 162 10 44 25 60 54 60 108 0 50 -24 80 -116 142 -79 53
-96 81 -75 125 16 36 56 48 116 36 28 -5 51 -9 52 -8 0 0 3 12 5 25 2 19 -3
26 -22 32 -46 13 -104 9 -146 -10z"/>
<path d="M459 586 c-124 -44 -177 -176 -133 -327 22 -73 72 -120 151 -142 50
-15 67 -25 102 -67 38 -45 46 -50 84 -50 l41 0 -54 55 c-29 30 -52 56 -49 58
2 3 18 12 36 21 41 21 69 50 96 101 30 56 30 181 0 246 -44 97 -166 144 -274
105z m169 -63 c50 -37 67 -80 67 -168 0 -98 -25 -147 -89 -176 -80 -36 -158
-16 -204 54 -24 36 -27 51 -27 122 0 71 3 86 26 121 15 23 42 48 60 58 45 22
130 17 167 -11z"/>
<path d="M1306 590 c-41 -13 -75 -48 -87 -90 -17 -57 7 -98 97 -160 109 -75
126 -109 79 -155 -28 -29 -77 -33 -132 -10 -49 21 -53 19 -53 -15 0 -25 5 -30
38 -39 85 -24 176 -4 208 45 22 33 20 101 -3 133 -11 14 -52 49 -91 76 -79 55
-98 81 -88 119 12 50 73 65 164 40 19 -5 22 -2 22 19 0 14 -5 29 -10 32 -18
11 -114 15 -144 5z"/>
<path d="M830 355 l0 -235 125 0 125 0 0 25 c0 25 0 25 -95 25 l-95 0 0 210 0
210 -30 0 -30 0 0 -235z"/>
<path d="M2495 455 c-77 -27 -123 -110 -110 -200 14 -93 86 -152 174 -142 72
7 101 22 101 52 0 29 0 29 -36 10 -48 -25 -109 -19 -143 13 -17 15 -33 39 -37
55 l-6 27 122 0 123 0 -6 49 c-14 116 -85 169 -182 136z m97 -63 c9 -9 20 -29
23 -44 l7 -28 -91 0 -91 0 11 27 c6 15 15 34 22 41 28 35 86 36 119 4z"/>
<path d="M1592 440 c-64 -39 -93 -123 -72 -210 21 -86 95 -131 192 -116 57 9
78 23 78 51 0 24 -1 24 -35 9 -52 -21 -117 -18 -144 7 -21 20 -41 59 -41 80 0
5 53 9 121 9 l122 0 -7 52 c-9 66 -29 104 -66 123 -41 21 -108 19 -148 -5z
m131 -47 c8 -10 19 -30 22 -45 l7 -28 -90 0 -91 0 11 30 c5 17 20 37 31 45 29
21 90 19 110 -2z"/>
<path d="M1954 435 c-30 -30 -38 -31 -31 -5 4 17 0 20 -24 20 l-29 0 0 -165 0
-165 24 0 c22 0 23 3 29 109 7 145 26 181 93 181 19 0 24 5 24 25 0 21 -5 25
-30 25 -20 0 -40 -9 -56 -25z"/>
<path d="M2070 448 c0 -8 26 -83 58 -168 56 -149 59 -155 88 -158 30 -3 30 -3
95 163 l66 166 -30 -3 c-28 -3 -32 -9 -74 -123 -24 -66 -47 -123 -51 -127 -4
-4 -28 52 -53 125 -43 121 -48 132 -73 135 -17 2 -26 -1 -26 -10z"/>
<path d="M2740 291 l0 -171 24 0 c23 0 24 3 31 112 9 147 25 178 91 178 19 0
24 5 24 25 0 21 -5 25 -30 25 -20 0 -40 -9 -56 -25 -31 -31 -34 -31 -31 -2 2
17 -4 23 -25 25 l-28 3 0 -170z"/>
<path d="M2951 434 c0 -11 3 -14 6 -6 3 7 2 16 -1 19 -3 4 -6 -2 -5 -13z"/>
</g>
</svg>
