<?xml version="1.0" standalone="no"?>
<!DOCTYPE svg PUBLIC "-//W3C//DTD SVG 20010904//EN"
 "http://www.w3.org/TR/2001/REC-SVG-20010904/DTD/svg10.dtd">
<svg version="1.0" xmlns="http://www.w3.org/2000/svg"
 width="3692.000000pt" height="800.000000pt" viewBox="0 0 3692.000000 800.000000"
 preserveAspectRatio="xMidYMid meet">
<metadata>
Created by potrace 1.13, written by Peter Selinger 2001-2015
</metadata>
<g transform="translate(0.000000,800.000000) scale(0.100000,-0.100000)"
fill="#000000" stroke="none">
<path d="M16310 7990 c-8 -5 -36 -19 -62 -31 -66 -29 -150 -123 -178 -196 -17
-45 -23 -90 -28 -203 l-7 -145 -93 -3 -93 -3 3 -77 3 -77 92 -3 93 -3 2 -497
3 -497 95 0 95 0 2 490 c2 270 3 495 3 502 0 9 29 10 109 6 59 -3 120 -3 135
1 25 6 26 9 26 80 0 58 -3 75 -16 80 -9 3 -69 6 -133 6 -65 0 -120 2 -122 4
-2 2 -2 67 1 143 6 156 20 200 81 241 30 21 43 23 114 20 44 -3 88 -8 98 -12
15 -7 17 -1 17 74 0 108 -3 110 -127 109 -54 0 -105 -4 -113 -9z"/>
<path d="M10065 7946 c-54 -25 -78 -60 -79 -117 -1 -48 2 -54 38 -85 32 -28
48 -34 84 -34 59 0 103 33 122 90 13 39 12 45 -6 78 -36 66 -102 94 -159 68z"/>
<path d="M7945 7868 c-3 -7 -4 -373 -3 -813 l3 -800 95 0 95 0 1 655 c0 360 2
660 3 665 1 6 15 -24 30 -65 16 -41 42 -104 59 -140 45 -97 76 -167 162 -360
43 -96 89 -200 103 -230 14 -30 35 -77 47 -105 12 -27 28 -63 36 -80 8 -16 45
-100 83 -185 l69 -155 52 0 51 0 175 395 c96 217 181 409 189 425 7 17 22 50
33 75 11 25 29 66 41 93 11 26 30 67 41 92 11 25 29 64 39 88 27 60 62 147 70
174 3 13 6 -287 6 -665 l0 -687 90 0 90 0 0 815 0 815 -100 3 c-55 2 -109 1
-120 -2 -13 -3 -30 -28 -49 -73 -17 -37 -44 -99 -62 -138 -50 -109 -83 -183
-124 -275 -21 -47 -49 -111 -64 -142 -14 -32 -38 -84 -52 -115 -15 -32 -43
-96 -64 -143 -21 -47 -54 -121 -75 -165 -20 -44 -53 -123 -72 -175 -20 -52
-37 -97 -39 -99 -2 -2 -11 13 -20 35 -48 117 -115 274 -214 499 -10 22 -32 74
-50 115 -18 41 -40 93 -50 115 -10 22 -32 74 -50 115 -18 41 -40 93 -50 115
-10 22 -32 74 -50 115 -61 142 -80 185 -89 200 -11 20 -259 28 -266 8z"/>
<path d="M16920 7738 c-30 -11 -67 -24 -82 -30 l-28 -10 0 -139 0 -138 -97 -3
-98 -3 0 -80 0 -80 98 -3 97 -3 0 -387 c0 -449 5 -482 81 -560 63 -64 100 -76
229 -76 90 0 122 3 148 17 32 17 32 18 32 93 0 57 -3 76 -15 80 -8 4 -21 2
-28 -3 -41 -33 -166 -22 -206 17 -45 46 -51 98 -51 475 l0 344 148 3 147 3 0
80 0 80 -147 3 -148 3 -2 166 c-2 100 -7 167 -13 169 -5 1 -35 -7 -65 -18z"/>
<path d="M17660 7648 c-14 -6 -39 -17 -55 -24 -17 -7 -50 -32 -73 -56 -145
-146 -131 -382 31 -499 67 -49 101 -59 198 -59 72 0 98 4 141 24 84 38 152
114 185 206 16 44 17 150 2 187 -32 77 -42 93 -85 137 -44 43 -60 53 -137 85
-35 14 -173 13 -207 -1z m214 -53 c48 -20 123 -89 140 -129 32 -74 36 -89 36
-131 0 -42 -4 -57 -37 -133 -18 -42 -73 -97 -124 -122 -50 -26 -185 -29 -239
-6 -101 42 -170 151 -170 269 0 44 4 59 37 134 17 40 92 107 135 120 52 17
180 15 222 -2z"/>
<path d="M17633 7553 c-10 -3 -13 -56 -13 -213 0 -199 1 -209 20 -215 42 -13
54 7 54 91 1 67 4 79 19 82 32 6 68 -28 99 -96 17 -37 36 -70 42 -74 19 -13
56 -9 62 6 6 16 -49 128 -79 161 -17 19 -17 20 0 32 53 38 63 54 63 107 0 44
-4 56 -27 77 -16 14 -47 31 -69 37 -41 12 -148 15 -171 5z m185 -75 c7 -7 12
-29 12 -50 0 -31 -5 -40 -30 -53 -16 -8 -45 -15 -65 -15 l-35 0 0 65 0 65 53
0 c29 0 58 -5 65 -12z"/>
<path d="M10980 7441 c-232 -34 -410 -201 -470 -439 -24 -94 -26 -278 -5 -367
44 -184 174 -327 360 -393 98 -36 255 -32 384 9 109 34 111 37 111 140 0 80
-8 106 -24 80 -3 -5 -36 -24 -73 -42 -65 -32 -72 -33 -188 -34 -106 0 -125 3
-168 24 -114 56 -187 157 -213 295 -18 91 -18 138 1 227 27 127 81 213 175
275 65 43 114 57 205 57 89 1 159 -15 223 -50 24 -14 48 -23 53 -21 11 4 22
143 13 170 -16 51 -236 90 -384 69z"/>
<path d="M12830 7444 c-159 -19 -318 -115 -398 -242 -128 -200 -135 -520 -16
-719 68 -113 159 -186 286 -230 95 -33 279 -37 373 -9 217 65 353 224 395 462
16 88 8 266 -14 347 -52 190 -174 319 -354 376 -37 12 -217 21 -272 15z m170
-174 c186 -35 290 -194 290 -443 0 -77 -22 -192 -49 -253 -25 -56 -93 -123
-156 -154 -44 -22 -63 -25 -165 -25 -107 0 -119 2 -170 28 -95 49 -154 119
-189 227 -26 78 -30 286 -7 361 61 199 234 299 446 259z"/>
<path d="M15070 7440 c-217 -32 -375 -164 -448 -375 -38 -108 -43 -307 -12
-429 50 -197 178 -332 371 -393 79 -25 293 -23 371 4 167 58 292 186 352 363
56 165 39 404 -41 567 -52 108 -165 203 -289 244 -63 21 -224 31 -304 19z
m266 -189 c106 -46 173 -152 195 -309 12 -83 6 -238 -12 -293 -34 -108 -98
-187 -184 -229 -43 -21 -65 -24 -160 -24 -99 -1 -116 2 -166 25 -147 69 -219
202 -219 405 0 118 13 184 50 261 45 92 135 163 230 184 66 15 211 4 266 -20z"/>
<path d="M12060 7426 c-81 -27 -161 -96 -197 -171 -9 -19 -20 -35 -25 -35 -4
0 -8 42 -8 94 0 76 -3 95 -16 100 -27 10 -159 7 -171 -5 -8 -8 -10 -175 -6
-577 2 -312 6 -573 8 -579 5 -14 151 -18 171 -5 8 5 13 115 17 362 4 315 7
362 24 415 26 80 47 119 86 159 55 56 88 68 180 63 45 -2 92 -7 105 -12 22 -7
22 -6 22 87 0 92 -1 95 -25 106 -32 15 -118 14 -165 -2z"/>
<path d="M13936 7419 c-105 -36 -189 -107 -227 -193 -16 -37 -21 -69 -21 -126
1 -160 61 -232 293 -347 80 -40 159 -87 177 -104 54 -53 61 -135 18 -200 -60
-93 -293 -90 -438 6 -21 14 -43 23 -48 20 -15 -9 -12 -168 3 -187 6 -9 37 -25
68 -36 213 -78 479 -21 583 125 44 63 54 97 55 187 1 65 -3 87 -25 130 -45 90
-98 132 -258 205 -56 26 -123 60 -149 76 -119 75 -113 229 12 281 75 31 264 8
335 -42 11 -8 24 -14 28 -14 5 0 8 42 8 94 l0 94 -32 13 c-118 45 -279 52
-382 18z"/>
<path d="M1545 7352 c-61 -20 -206 -115 -279 -183 -75 -71 -81 -79 -79 -115 0
-21 8 -52 17 -69 8 -16 177 -190 375 -385 331 -328 399 -403 498 -550 95 -141
182 -355 222 -545 38 -183 46 -504 17 -680 -66 -400 -264 -792 -630 -1245 -33
-41 -71 -86 -83 -99 -12 -13 -48 -55 -80 -92 -125 -144 -479 -486 -713 -689
-41 -36 -84 -73 -95 -83 -11 -10 -39 -33 -62 -50 -44 -34 -68 -65 -58 -75 3
-3 15 -1 25 6 11 7 27 12 35 12 9 0 49 22 90 50 81 55 154 99 230 140 28 15
68 37 90 50 22 13 69 39 105 58 36 19 88 47 117 63 67 38 410 209 496 248 37
17 97 45 135 62 135 63 201 92 347 154 17 7 51 22 77 34 26 11 50 21 53 21 2
0 28 11 57 24 93 43 613 246 738 289 25 9 110 39 190 67 305 107 644 216 845
272 22 6 65 19 95 29 104 33 255 78 335 99 44 12 141 38 215 59 225 64 403
110 710 186 292 72 385 94 570 135 52 12 114 25 138 31 86 19 129 28 187 39
33 6 78 15 100 20 22 5 65 13 95 19 30 6 78 15 105 20 95 18 217 38 342 57 24
3 46 10 49 16 7 11 -78 142 -195 298 -91 121 -362 402 -466 483 -80 61 -273
194 -358 245 -66 40 -362 190 -444 225 -238 102 -529 202 -803 277 -41 11 -91
25 -110 30 -135 38 -388 92 -735 159 -27 6 -135 24 -240 41 -104 17 -228 38
-275 46 -47 9 -130 22 -185 30 -55 7 -140 20 -190 28 -49 8 -135 22 -190 31
-126 20 -276 45 -335 56 -25 5 -101 18 -170 29 -69 11 -147 25 -175 30 -53 11
-145 26 -235 40 -55 8 -172 30 -265 50 -27 6 -72 16 -100 22 -27 6 -61 14 -75
18 -14 4 -45 13 -70 20 -25 6 -53 16 -62 21 -10 5 -26 9 -35 9 -10 0 -28 8
-40 18 l-22 17 29 59 c16 33 33 62 37 65 30 22 85 106 88 134 6 62 18 112 29
119 13 9 -1 9 -29 0z m70 -582 c99 -29 192 -55 280 -77 55 -14 105 -29 111
-34 18 -14 29 -48 154 -457 17 -56 30 -110 28 -118 -2 -10 -22 14 -51 60 -27
42 -70 104 -95 139 -59 80 -234 279 -275 313 -18 14 -50 43 -72 63 -22 20 -67
59 -100 85 -41 34 -52 47 -35 42 14 -4 39 -11 55 -16z m705 -171 c80 -16 156
-32 170 -35 14 -3 49 -10 78 -15 28 -5 76 -13 105 -18 28 -6 93 -17 142 -26
157 -27 195 -36 190 -45 -3 -5 -49 -35 -103 -66 -185 -109 -340 -223 -487
-358 -33 -31 -63 -56 -67 -56 -4 0 -17 33 -28 73 -42 147 -123 369 -176 484
-13 29 -26 64 -30 78 -7 29 -24 30 206 -16z m829 -226 c54 -183 88 -459 76
-616 -4 -48 -10 -89 -14 -92 -4 -2 -50 9 -102 26 -52 16 -195 59 -319 95 -284
82 -320 94 -320 103 0 14 215 220 310 297 127 103 329 254 340 254 5 0 18 -30
29 -67z m248 31 c81 -14 171 -29 198 -34 28 -5 104 -18 170 -30 102 -18 283
-54 455 -91 25 -5 60 -12 77 -15 18 -4 30 -10 28 -15 -3 -4 -56 -31 -118 -60
-274 -129 -482 -243 -697 -382 -80 -52 -148 -93 -152 -90 -5 2 -8 37 -8 76 -1
199 -46 436 -119 615 -25 63 -38 61 166 26z m1069 -256 c-3 -13 -12 -59 -22
-103 -9 -44 -34 -129 -56 -190 -44 -123 -234 -513 -272 -560 l-25 -30 -63 33
c-178 94 -276 142 -403 198 -77 35 -141 69 -143 77 -6 26 618 418 923 580 45
24 66 22 61 -5z m271 -24 c305 -84 744 -239 988 -349 l60 -27 -45 -13 c-25 -7
-106 -27 -180 -45 -330 -79 -749 -210 -1068 -335 -95 -37 -176 -65 -179 -61
-3 3 17 61 46 127 97 224 162 447 191 662 7 48 14 87 16 87 3 0 79 -21 171
-46z m-2144 -489 c178 -46 482 -147 482 -161 0 -6 -56 -59 -125 -118 -69 -60
-208 -185 -308 -280 -101 -94 -190 -173 -198 -174 -12 -3 -14 3 -7 35 13 66 6
449 -11 583 -9 68 -16 130 -16 137 0 20 32 16 183 -22z m3277 30 c0 -24 -187
-284 -384 -535 -283 -360 -538 -680 -541 -680 -2 0 -49 60 -104 133 -147 196
-298 349 -491 499 l-35 27 76 35 c249 115 820 326 1204 445 269 83 275 85 275
76z m218 -80 c304 -180 579 -398 834 -660 l117 -120 -122 -13 c-317 -33 -411
-44 -532 -62 -33 -5 -96 -14 -140 -20 -44 -6 -100 -15 -125 -20 -25 -5 -76
-14 -115 -21 -214 -36 -562 -109 -827 -173 -32 -7 -58 -10 -58 -6 0 4 71 79
158 166 309 312 451 505 628 855 36 71 71 129 78 129 6 0 53 -25 104 -55z
m-2698 -231 c36 -14 335 -164 463 -231 28 -15 28 -16 10 -33 -10 -9 -97 -58
-194 -108 -231 -119 -305 -160 -512 -284 -54 -32 -102 -58 -107 -58 -6 0 14
48 44 108 87 174 145 331 193 517 28 113 31 118 47 112 6 -3 31 -13 56 -23z
m-224 -31 c-2 -10 -14 -52 -26 -93 -48 -170 -112 -334 -192 -495 -51 -102
-127 -233 -139 -240 -5 -3 -50 31 -101 76 -51 44 -125 100 -165 122 -46 27
-72 48 -70 57 5 30 655 590 685 590 8 0 11 -7 8 -17z m1304 -613 c125 -99 340
-289 340 -300 0 -7 -150 -53 -325 -100 -226 -61 -758 -234 -1105 -359 -107
-39 -196 -69 -198 -67 -2 2 39 43 90 92 302 286 532 546 736 832 46 64 90 125
98 135 14 17 22 13 132 -62 64 -44 169 -121 232 -171z m-620 171 c0 -5 -37
-60 -81 -123 -252 -351 -718 -926 -739 -913 -6 4 -10 36 -10 73 -1 93 -32 225
-80 337 -22 52 -40 101 -40 108 0 17 142 102 540 322 110 61 391 204 403 205
4 0 7 -4 7 -9z m-1292 -465 c34 -25 62 -50 62 -55 0 -5 -106 -90 -236 -188
-130 -98 -247 -186 -260 -196 -33 -25 -30 -5 5 46 68 101 136 246 215 459 l17
48 67 -34 c37 -19 95 -55 130 -80z m266 -283 c56 -95 106 -231 109 -295 l2
-48 -345 -138 c-389 -157 -441 -179 -629 -268 -74 -36 -139 -63 -144 -61 -5 1
34 35 86 75 264 198 566 478 755 700 52 61 101 112 108 112 8 0 34 -35 58 -77z
m-275 0 c-90 -118 -376 -394 -554 -538 -155 -124 -415 -300 -415 -281 0 2 39
46 86 98 47 51 125 142 173 202 93 117 113 133 481 386 91 63 176 122 190 132
34 24 58 25 39 1z"/>
<path d="M10027 7334 c-4 -4 -7 -228 -7 -499 0 -368 3 -494 12 -503 7 -7 42
-12 85 -12 67 0 73 2 78 23 3 12 4 240 3 507 l-3 485 -80 3 c-45 1 -84 0 -88
-4z"/>
<path d="M9070 5804 c-14 -2 -65 -9 -115 -15 -337 -40 -619 -166 -818 -366
-152 -153 -251 -332 -324 -589 -25 -91 -28 -113 -28 -269 0 -148 3 -180 23
-250 112 -387 440 -715 1122 -1120 419 -249 664 -465 770 -680 54 -110 74
-204 66 -325 -10 -177 -62 -296 -182 -416 -69 -70 -95 -89 -185 -132 -57 -28
-134 -58 -171 -66 -237 -58 -511 -40 -793 51 -129 42 -155 53 -423 185 -149
74 -207 97 -215 89 -7 -7 -12 -113 -15 -320 l-5 -309 24 -15 c28 -18 129 -53
279 -95 473 -135 817 -160 1182 -87 503 101 892 398 1022 781 43 127 51 196
50 414 -1 187 -3 213 -26 301 -95 351 -355 634 -897 975 -579 364 -642 409
-807 566 -196 189 -270 353 -244 539 39 272 155 446 373 560 118 61 242 90
420 96 290 11 605 -58 882 -191 61 -29 113 -50 118 -47 4 4 6 140 5 302 l-3
294 -70 24 c-243 82 -511 122 -805 120 -102 -1 -196 -3 -210 -5z"/>
<path d="M12830 5804 c-19 -2 -82 -9 -140 -15 -525 -56 -998 -280 -1296 -616
-256 -288 -419 -596 -514 -973 -64 -253 -85 -436 -84 -750 1 -604 135 -1131
384 -1508 144 -219 342 -418 544 -546 256 -163 558 -270 965 -342 173 -31 292
-110 495 -333 56 -60 218 -247 361 -415 l260 -305 400 0 400 -1 -257 253
c-279 273 -673 678 -752 771 -40 46 -48 61 -39 74 15 24 81 54 247 112 234 81
371 157 544 303 199 168 363 390 522 706 173 347 221 516 251 886 18 221 15
596 -5 769 -126 1081 -728 1757 -1701 1911 -95 15 -503 28 -585 19z m442 -500
c212 -29 449 -116 607 -224 427 -290 659 -825 678 -1565 6 -226 -4 -388 -33
-565 -108 -654 -463 -1120 -989 -1296 -197 -66 -386 -95 -620 -96 -249 0 -438
37 -610 121 -405 198 -754 648 -865 1116 -101 425 -83 1048 41 1428 74 227
290 557 476 728 338 309 775 427 1315 353z"/>
<path d="M20890 5799 c-417 -21 -757 -154 -987 -385 -210 -213 -353 -561 -353
-862 0 -163 28 -279 101 -426 155 -310 473 -595 1044 -936 605 -361 844 -634
845 -962 0 -287 -156 -511 -435 -623 -132 -52 -238 -68 -435 -62 -198 6 -298
24 -481 85 -132 45 -150 53 -402 178 -104 52 -195 94 -202 94 -7 0 -16 -8 -21
-18 -4 -9 -10 -153 -12 -319 -4 -346 -17 -305 109 -347 370 -123 699 -186 969
-186 637 0 1179 288 1386 736 75 161 107 393 85 611 -15 151 -31 220 -79 333
-94 225 -277 429 -582 651 -129 94 -210 147 -515 339 -284 179 -429 285 -555
410 -175 173 -231 278 -238 446 -12 291 151 558 406 665 157 65 205 73 447 73
190 0 234 -3 325 -23 193 -41 354 -94 506 -167 51 -24 99 -44 108 -44 14 0 16
30 16 295 l0 294 -32 14 c-42 19 -66 27 -103 37 -16 5 -55 15 -86 24 -236 64
-522 90 -829 75z"/>
<path d="M15855 5748 c-3 -7 -4 -1044 -3 -2305 l3 -2292 1208 -4 c788 -2 1211
1 1217 7 14 14 13 519 -1 533 -7 7 -291 9 -930 5 l-919 -5 -2 2034 -3 2034
-283 3 c-221 2 -284 0 -287 -10z"/>
<path d="M32315 4509 c-647 -62 -1172 -543 -1335 -1223 -37 -154 -42 -202 -47
-431 -12 -529 53 -838 237 -1117 98 -150 164 -224 272 -305 547 -414 1055
-483 1783 -245 88 29 113 39 279 113 l81 36 3 256 c1 171 -1 257 -8 257 -6 0
-70 -31 -143 -69 -348 -183 -683 -272 -970 -258 -191 9 -349 59 -503 159 -177
116 -332 335 -420 594 -37 110 -63 218 -71 291 l-6 63 1154 2 1154 3 -3 305
c-6 467 -41 652 -175 914 -195 382 -548 614 -997 655 -128 12 -155 12 -285 0z
m265 -501 c144 -27 293 -110 394 -219 112 -121 199 -321 247 -568 12 -60 19
-117 16 -125 -6 -14 -96 -16 -861 -16 -492 0 -857 4 -860 9 -7 11 32 167 69
276 32 95 92 216 150 305 176 268 510 402 845 338z"/>
<path d="M36464 4499 c-63 -24 -136 -86 -168 -142 -95 -169 -33 -377 140 -461
49 -24 68 -28 148 -28 75 0 101 4 142 23 76 36 174 146 174 196 0 7 5 13 10
13 6 0 10 37 10 90 0 53 -4 90 -10 90 -5 0 -10 7 -10 15 0 23 -39 87 -77 126
-32 34 -73 58 -146 88 -44 18 -155 13 -213 -10z m239 -54 c118 -53 181 -181
155 -312 -17 -89 -71 -157 -162 -203 -19 -10 -59 -15 -116 -15 -98 0 -156 22
-207 79 -95 105 -100 285 -11 386 57 64 115 88 215 89 57 1 84 -4 126 -24z"/>
<path d="M36458 4404 c-5 -4 -8 -101 -8 -216 l0 -208 29 0 c36 0 41 13 41 101
0 66 1 69 23 69 36 0 68 -44 106 -143 9 -22 17 -27 46 -27 25 0 35 4 35 15 0
19 -56 133 -79 159 -12 15 -13 20 -3 23 7 3 26 16 42 30 26 21 30 32 30 75 0
60 -11 83 -50 103 -32 17 -200 32 -212 19z m161 -65 c28 -10 31 -15 31 -53 0
-55 -13 -66 -77 -66 l-53 0 0 65 0 65 34 0 c18 0 47 -5 65 -11z"/>
<path d="M23875 4504 c-186 -19 -368 -70 -517 -145 -465 -233 -780 -688 -864
-1248 -28 -186 -16 -650 22 -871 33 -191 109 -376 222 -546 85 -126 167 -212
289 -301 247 -180 475 -282 748 -334 92 -18 403 -18 515 0 250 39 499 115 748
227 29 13 56 24 61 24 28 0 32 35 32 275 0 136 -3 250 -5 253 -3 2 -38 -12
-78 -33 -40 -21 -100 -52 -133 -70 -77 -40 -265 -115 -375 -148 -229 -71 -490
-95 -663 -63 -190 36 -371 127 -495 249 -119 117 -234 314 -300 512 -37 109
-75 276 -70 307 l3 23 1150 1 1150 0 -1 335 c0 366 -7 434 -62 624 -76 258
-179 434 -356 602 -224 214 -493 319 -835 327 -80 2 -164 2 -186 0z m257 -509
c127 -26 257 -91 349 -173 120 -107 217 -300 274 -547 34 -151 38 -193 17
-198 -9 -2 -397 -3 -862 -3 l-845 1 3 40 c6 74 64 256 122 382 129 277 320
438 595 498 80 18 264 18 347 0z"/>
<path d="M35700 4480 c-138 -15 -278 -64 -377 -131 -117 -79 -193 -165 -300
-336 -42 -67 -80 -120 -85 -117 -5 3 -8 117 -8 252 0 136 0 253 0 260 0 10
-61 12 -285 10 l-285 -3 -1 -1630 -2 -1630 289 0 289 0 -3 720 c-5 955 10
1297 64 1462 8 26 42 102 74 168 101 204 239 351 404 429 150 71 276 77 467
21 68 -19 129 -35 136 -35 11 0 13 56 11 283 l-3 282 -160 1 c-88 1 -189 -2
-225 -6z"/>
<path d="M27190 4464 c-264 -48 -440 -176 -614 -447 -49 -76 -91 -136 -93
-133 -3 2 -4 122 -4 265 2 200 -1 261 -10 261 -7 0 -127 3 -266 6 -139 3 -263
4 -275 1 l-23 -6 0 -1633 0 -1633 285 0 285 0 6 935 c6 965 9 1040 50 1204 24
98 100 261 169 361 62 89 184 207 262 253 31 18 89 45 130 60 63 22 89 26 183
25 96 0 125 -5 230 -36 66 -20 123 -33 128 -28 4 4 6 131 5 282 l-3 274 -185
2 c-120 1 -211 -4 -260 -13z"/>
<path d="M27820 4411 c0 -6 36 -110 81 -233 44 -123 121 -333 169 -468 185
-515 464 -1257 760 -2025 62 -159 130 -337 151 -395 63 -167 26 -150 327 -150
191 0 262 3 274 13 9 6 104 235 211 507 107 272 344 869 525 1325 296 744 377
946 528 1315 23 58 39 108 35 113 -4 4 -133 6 -286 5 l-278 -3 -30 -80 c-16
-44 -42 -114 -57 -155 -69 -185 -317 -868 -360 -990 -40 -115 -222 -597 -320
-850 -16 -41 -56 -147 -90 -235 -99 -260 -115 -298 -126 -302 -5 -2 -24 36
-41 84 -17 49 -46 126 -63 173 -18 47 -35 96 -40 110 -5 14 -22 61 -38 105
-163 439 -321 889 -512 1460 l-227 680 -296 3 c-187 1 -297 -1 -297 -7z"/>
<path d="M503 2414 c-32 -26 -90 -79 -128 -118 -73 -73 -215 -255 -215 -275 0
-6 -3 -11 -7 -11 -5 0 -13 -10 -19 -23 -6 -12 -26 -51 -44 -87 -47 -93 -62
-139 -76 -230 -11 -75 -1 -236 17 -255 5 -5 9 -17 9 -27 0 -10 4 -26 9 -36 5
-9 17 -35 28 -57 24 -48 46 -88 53 -95 3 -3 17 -21 30 -40 35 -52 175 -194
255 -260 113 -92 280 -199 430 -275 139 -70 215 -105 228 -105 4 0 26 -9 50
-19 89 -41 346 -126 502 -167 102 -27 137 -34 238 -53 31 -5 62 -13 67 -16 6
-4 19 -3 30 0 18 6 14 12 -35 52 -30 25 -55 49 -55 54 0 5 -6 9 -13 9 -8 0
-19 11 -25 24 -15 33 -44 66 -58 66 -6 0 -17 12 -25 27 -16 32 -65 83 -79 83
-6 0 -9 3 -8 8 1 4 -22 31 -50 61 -29 29 -52 59 -52 66 0 8 -9 16 -20 20 -11
3 -32 19 -47 34 -41 41 -93 100 -93 104 0 2 -23 28 -51 58 -27 30 -66 71 -86
93 -50 53 -113 134 -113 144 0 5 -11 15 -25 22 -14 7 -25 18 -25 24 0 6 -16
29 -35 51 -37 42 -129 173 -181 257 -16 27 -36 53 -42 57 -7 4 -14 17 -17 29
-2 13 -13 35 -24 51 -12 16 -21 36 -21 45 0 9 -4 16 -10 16 -5 0 -10 6 -10 13
0 8 -14 42 -31 77 -17 35 -31 76 -31 92 -1 15 -4 28 -8 28 -6 0 -33 66 -34 85
-1 6 -6 19 -12 30 -6 11 -12 34 -12 52 0 17 -6 41 -12 53 -6 11 -8 29 -5 40 3
10 2 21 -4 24 -9 6 -37 142 -33 160 2 4 -2 14 -8 21 -13 15 -10 46 5 57 6 5 5
8 -2 8 -7 0 -38 -21 -70 -46z"/>
</g>
</svg>
